<?xml version="1.0" encoding="UTF-8"?>
<svg id="katman_1" xmlns="http://www.w3.org/2000/svg" version="1.1" viewBox="0 0 1024 1024">
  <!-- Generator: Adobe Illustrator 30.0.0, SVG Export Plug-In . SVG Version: 2.1.1 Build 123)  -->
  <defs>
    <style>
      .st0 {
        fill: #16221e;
      }

      .st1 {
        fill: #5bb56c;
      }
    </style>
  </defs>
  <rect class="st1" width="1024" height="1024"/>
  <g>
    <path class="st0" d="M133.43,604.78h-44.95v-177.61h126.18v42.07h-81.23v29.57h71.87v41.57h-71.87s0,64.39,0,64.39Z"/>
    <path class="st0" d="M396.1,563.43l11.31,33.9c-12.35,7.21-26.42,10.82-42.3,10.82-32.83,0-49.28-18.26-49.28-54.8v-46.14h-20.17v-35.09h20.67v-47.1h42.07v47.1h41.57v35.09h-41.57v41.11c0,14.11,5.6,21.13,16.84,21.13,6.4,0,13.38-1.99,20.9-6.02h-.04Z"/>
    <path class="st0" d="M463.87,604.78h-42.3v-183.36h41.34v68.73c3.37-6.1,8.82-11.2,16.34-15.38s15.95-6.25,25.24-6.25c14.27,0,26.35,4.72,36.28,14.19,9.93,9.47,14.92,23.01,14.92,40.61v81.46h-42.53v-70.18c0-8.67-2.07-15.38-6.25-20.17s-9.86-7.21-17.07-7.21c-7.71,0-13.92,2.61-18.75,7.82-4.79,5.22-7.21,12.04-7.21,20.56v69.22-.04Z"/>
    <path class="st0" d="M579.23,546.86v-74.75h42.53v75.21c0,6.56,1.92,11.89,5.75,15.99,3.84,4.1,8.97,6.14,15.38,6.14s11.77-1.99,15.61-6.02c3.84-3.99,5.75-9.36,5.75-16.11v-75.21h42.53v74.75c0,19.41-5.64,34.44-16.95,45.18-11.28,10.74-26.96,16.11-46.98,16.11s-35.67-5.37-46.87-16.11c-11.2-10.74-16.84-25.81-16.84-45.18h.08Z"/>
    <path class="st0" d="M810.18,468.74c18.91,0,34.59,6.56,47.1,19.71,12.66,13.15,18.98,29.8,18.98,49.97s-6.25,36.86-18.75,49.97c-12.5,13.15-28.19,19.71-47.1,19.71-15.23,0-27.73-5.14-37.51-15.38v12h-40.84v-183.32h42.3v61.06c9.63-9.13,21.55-13.69,35.82-13.69v-.04ZM781.23,560.33c5.68,5.94,12.85,8.9,21.52,8.9s15.88-2.95,21.63-8.9c5.75-5.91,8.67-13.31,8.67-22.13s-2.88-15.69-8.67-21.63c-5.6-6.1-12.81-9.13-21.63-9.13s-15.88,3.03-21.63,9.13c-5.6,6.1-8.4,13.31-8.4,21.63,0,8.82,2.84,16.18,8.51,22.13Z"/>
    <path class="st0" d="M927.15,605.27c-5.79,0-10.7-1.96-14.73-5.83-4.03-3.87-6.06-8.71-6.06-14.54s2.03-10.39,6.06-14.19,8.94-5.71,14.73-5.71,10.2,1.96,14.11,5.83c3.87,3.87,5.83,8.59,5.83,14.11s-1.96,10.62-5.83,14.54c-3.87,3.87-8.59,5.83-14.11,5.83v-.04Z"/>
    <g>
      <path class="st0" d="M931.99,544.03h10.24v6.75h-30.99v-10.78c0-3.87.84-6.79,2.53-8.71,1.69-1.96,4.22-2.91,7.59-2.91,3.18,0,5.75,1.11,7.71,3.34,1.96,2.22,2.95,5.22,2.95,8.94v3.41l-.04-.04ZM916.45,544.03h10.35v-2.8c0-1.92-.42-3.34-1.3-4.3s-2.19-1.42-3.91-1.42-2.99.46-3.84,1.42-1.27,2.38-1.27,4.3v2.84l-.04-.04Z"/>
      <path class="st0" d="M942.76,510.28c0,4.41-1.46,8.02-4.33,10.82-2.88,2.8-6.67,4.18-11.31,4.18-4.91,0-8.86-1.42-11.89-4.26-3.03-2.84-4.53-6.6-4.53-11.28,0-4.41,1.46-7.98,4.33-10.7,2.91-2.72,6.71-4.1,11.47-4.1s8.82,1.42,11.77,4.22,4.45,6.52,4.45,11.08l.04.04ZM936.9,510.16c0-2.49-.88-4.45-2.65-5.91s-4.22-2.15-7.36-2.15-5.83.69-7.63,2.11c-1.8,1.42-2.72,3.34-2.72,5.79s.92,4.49,2.8,5.98c1.88,1.5,4.33,2.22,7.44,2.22s5.6-.73,7.4-2.22c1.8-1.5,2.72-3.41,2.72-5.79v-.04Z"/>
      <path class="st0" d="M942.23,482.59v6.75h-30.99v-6.75h30.99Z"/>
      <path class="st0" d="M942.23,447.34v6.86l-19.83,12.96c-.58.35-1.04.69-1.46.92-.42.27-.77.46-1.07.61v.08c.54-.08,1.23-.12,2.03-.12s1.8-.04,2.91-.04h17.41v6.37h-30.99v-7.33l19.21-12.5c.42-.27.88-.54,1.3-.81s.84-.5,1.23-.73v-.08c-.35.08-.88.12-1.61.12s-1.61.04-2.65.04h-17.49v-6.37h30.99Z"/>
      <path class="st0" d="M916.76,418.23v8.86h25.5v6.75h-25.5v8.82h-5.52v-24.47h5.52v.04Z"/>
    </g>
    <path class="st0" d="M257.42,495.51c-6.14,0-11.24-2.03-15.3-6.06-4.07-4.07-6.06-9.13-6.06-15.3s2.07-11.01,6.17-15,9.17-5.98,15.19-5.98,11.05,1.99,15.07,5.98c4.07,3.99,6.06,8.97,6.06,15s-2.03,11.24-6.06,15.3-9.09,6.06-15.07,6.06Z"/>
    <path class="st0" d="M275.22,492.14c-4.79,4.79-10.78,7.21-17.8,7.21s-13.23-2.42-18.03-7.21c-1.3-1.3-2.42-2.72-3.37-4.18v116.82h42.53v-116.82c-.96,1.5-2.07,2.91-3.37,4.18h.04Z"/>
  </g>
</svg>