<?xml version="1.0" encoding="UTF-8"?>
<svg id="katman_1" xmlns="http://www.w3.org/2000/svg" version="1.1" viewBox="0 0 248.21 65.81">
  <!-- Generator: Adobe Illustrator 30.0.0, SVG Export Plug-In . SVG Version: 2.1.1 Build 123)  -->
  <defs>
    <style>
      .st0 {
        fill: #ffffff;
      }
    </style>
  </defs>
  <path class="st0" d="M23.5,56.74h-11.72V10.43h32.9v10.97h-21.18v7.71h18.74v10.84h-18.74s0,16.79,0,16.79Z"/>
  <path class="st0" d="M91.99,45.96l2.95,8.84c-3.22,1.88-6.89,2.82-11.03,2.82-8.56,0-12.85-4.76-12.85-14.29v-12.03h-5.26v-9.15h5.39v-12.28h10.97v12.28h10.84v9.15h-10.84v10.72c0,3.68,1.46,5.51,4.39,5.51,1.67,0,3.49-.52,5.45-1.57h-.01Z"/>
  <path class="st0" d="M109.66,56.74h-11.03V8.93h10.78v17.92c.88-1.59,2.3-2.92,4.26-4.01s4.16-1.63,6.58-1.63c3.72,0,6.87,1.23,9.46,3.7,2.59,2.47,3.89,6,3.89,10.59v21.24h-11.09v-18.3c0-2.26-.54-4.01-1.63-5.26s-2.57-1.88-4.45-1.88c-2.01,0-3.63.68-4.89,2.04-1.25,1.36-1.88,3.14-1.88,5.36v18.05h0Z"/>
  <path class="st0" d="M139.74,41.64v-19.49h11.09v19.61c0,1.71.5,3.1,1.5,4.17s2.34,1.6,4.01,1.6,3.07-.52,4.07-1.57c1-1.04,1.5-2.44,1.5-4.2v-19.61h11.09v19.49c0,5.06-1.47,8.98-4.42,11.78-2.94,2.8-7.03,4.2-12.25,4.2s-9.3-1.4-12.22-4.2-4.39-6.73-4.39-11.78h.02Z"/>
  <path class="st0" d="M199.96,21.27c4.93,0,9.02,1.71,12.28,5.14,3.3,3.43,4.95,7.77,4.95,13.03s-1.63,9.61-4.89,13.03c-3.26,3.43-7.35,5.14-12.28,5.14-3.97,0-7.23-1.34-9.78-4.01v3.13h-10.65V8.93h11.03v15.92c2.51-2.38,5.62-3.57,9.34-3.57h0ZM192.41,45.15c1.48,1.55,3.35,2.32,5.61,2.32s4.14-.77,5.64-2.32c1.5-1.54,2.26-3.47,2.26-5.77s-.75-4.09-2.26-5.64c-1.46-1.59-3.34-2.38-5.64-2.38s-4.14.79-5.64,2.38c-1.46,1.59-2.19,3.47-2.19,5.64,0,2.3.74,4.22,2.22,5.77Z"/>
  <path class="st0" d="M230.46,56.87c-1.51,0-2.79-.51-3.84-1.52s-1.58-2.27-1.58-3.79.53-2.71,1.58-3.7,2.33-1.49,3.84-1.49,2.66.51,3.68,1.52c1.01,1.01,1.52,2.24,1.52,3.68s-.51,2.77-1.52,3.79c-1.01,1.01-2.24,1.52-3.68,1.52h0Z"/>
  <g>
    <path class="st0" d="M231.72,40.9h2.67v1.76h-8.08v-2.81c0-1.01.22-1.77.66-2.27.44-.51,1.1-.76,1.98-.76.83,0,1.5.29,2.01.87.51.58.77,1.36.77,2.33v.89h0ZM227.67,40.9h2.7v-.73c0-.5-.11-.87-.34-1.12s-.57-.37-1.02-.37-.78.12-1,.37-.33.62-.33,1.12v.74h0Z"/>
    <path class="st0" d="M234.53,32.1c0,1.15-.38,2.09-1.13,2.82s-1.74,1.09-2.95,1.09c-1.28,0-2.31-.37-3.1-1.11-.79-.74-1.18-1.72-1.18-2.94,0-1.15.38-2.08,1.13-2.79.76-.71,1.75-1.07,2.99-1.07s2.3.37,3.07,1.1,1.16,1.7,1.16,2.89h0ZM233,32.07c0-.65-.23-1.16-.69-1.54s-1.1-.56-1.92-.56-1.52.18-1.99.55c-.47.37-.71.87-.71,1.51s.24,1.17.73,1.56c.49.39,1.13.58,1.94.58s1.46-.19,1.93-.58c.47-.39.71-.89.71-1.51h0Z"/>
    <path class="st0" d="M234.39,24.88v1.76h-8.08v-1.76h8.08Z"/>
    <path class="st0" d="M234.39,15.69v1.79l-5.17,3.38c-.15.09-.27.18-.38.24-.11.07-.2.12-.28.16v.02c.14-.02.32-.03.53-.03s.47-.01.76-.01h4.54v1.66h-8.08v-1.91l5.01-3.26c.11-.07.23-.14.34-.21s.22-.13.32-.19v-.02c-.09.02-.23.03-.42.03s-.42.01-.69.01h-4.56v-1.66h8.08Z"/>
    <path class="st0" d="M227.75,8.1v2.31h6.65v1.76h-6.65v2.3h-1.44v-6.38h1.44Z"/>
  </g>
  <path class="st0" d="M55.83,28.25c-1.6,0-2.93-.53-3.99-1.58-1.06-1.06-1.58-2.38-1.58-3.99s.54-2.87,1.61-3.91,2.39-1.56,3.96-1.56,2.88.52,3.93,1.56c1.06,1.04,1.58,2.34,1.58,3.91s-.53,2.93-1.58,3.99-2.37,1.58-3.93,1.58Z"/>
  <path class="st0" d="M60.47,27.37c-1.25,1.25-2.81,1.88-4.64,1.88s-3.45-.63-4.7-1.88c-.34-.34-.63-.71-.88-1.09v30.46h11.09v-30.46c-.25.39-.54.76-.88,1.09h.01Z"/>
</svg>